<svg id="Layer_1" data-name="Layer 1" xmlns="http://www.w3.org/2000/svg" viewBox="0 0 381.29 99.5"><defs><style>.cls-1{fill:#1373ba;}</style></defs><title>template_egu2019_logo_egu_ga2020_blue</title><path class="cls-1" d="M140.1,39.1h7.2v9.3a24.87,24.87,0,0,1-3.2.8,15.53,15.53,0,0,1-3.1.3,8.21,8.21,0,0,1-6.3-2.4,10.34,10.34,0,0,1-2.1-6.9c0-2.9.8-5.3,2.5-6.9a9.54,9.54,0,0,1,6.9-2.5,12.44,12.44,0,0,1,5.4,1.1l-1.3,3a8.42,8.42,0,0,0-4.2-1,5.2,5.2,0,0,0-4,1.6,6.24,6.24,0,0,0-1.4,4.5,7.31,7.31,0,0,0,1.2,4.5,4.21,4.21,0,0,0,3.6,1.5,9.86,9.86,0,0,0,2.4-.3V41.9h-3.5l-.1-2.8Z" transform="translate(0 -1)"/><path class="cls-1" d="M157.1,49.5a7.19,7.19,0,0,1-5.3-1.9,6.89,6.89,0,0,1-1.9-5.3,7.94,7.94,0,0,1,1.7-5.4,6,6,0,0,1,4.8-1.9,6.14,6.14,0,0,1,4.6,1.6,6.24,6.24,0,0,1,1.6,4.7v1.9h-8.9a3.12,3.12,0,0,0,3.4,3.4,9.86,9.86,0,0,0,2.4-.3,10.5,10.5,0,0,0,2.3-.8v2.9a18,18,0,0,1-2.1.8A5.9,5.9,0,0,1,157.1,49.5Zm-.5-11.6a2.56,2.56,0,0,0-1.9.8,4,4,0,0,0-.8,2.1h5.3a2.86,2.86,0,0,0-.8-2.1C158.1,38.1,157.6,37.9,156.6,37.9Z" transform="translate(0 -1)"/><path class="cls-1" d="M178.5,49.3h-3.8v-8a4.2,4.2,0,0,0-.5-2.2,1.88,1.88,0,0,0-1.7-.8,2.64,2.64,0,0,0-2.3,1,7.54,7.54,0,0,0-.7,3.6v6.5h-3.8V35.5h2.9l.5,1.8h.2a3.53,3.53,0,0,1,1.7-1.5,6.55,6.55,0,0,1,2.5-.5,4.92,4.92,0,0,1,3.7,1.3,5.44,5.44,0,0,1,1.3,3.8v8.9Z" transform="translate(0 -1)"/><path class="cls-1" d="M188.1,49.5a7.19,7.19,0,0,1-5.3-1.9,6.89,6.89,0,0,1-1.9-5.3,7.94,7.94,0,0,1,1.7-5.4,6,6,0,0,1,4.8-1.9,6.14,6.14,0,0,1,4.6,1.6,6.24,6.24,0,0,1,1.6,4.7v1.9h-8.8a3.12,3.12,0,0,0,3.4,3.4,9.86,9.86,0,0,0,2.4-.3,10.5,10.5,0,0,0,2.3-.8v2.9a18,18,0,0,1-2.1.8A6.92,6.92,0,0,1,188.1,49.5Zm-.5-11.6a2.56,2.56,0,0,0-1.9.8,4,4,0,0,0-.8,2.1h5.3a2.86,2.86,0,0,0-.8-2.1C189.1,38.1,188.5,37.9,187.6,37.9Z" transform="translate(0 -1)"/><path class="cls-1" d="M204.3,35.1a5.28,5.28,0,0,1,1.3.1l-.3,3.6a3.75,3.75,0,0,0-1.1-.1,4.1,4.1,0,0,0-2.8.9,3,3,0,0,0-1,2.5v7h-3.8V35.5h2.8l.5,2.3h.2a5.19,5.19,0,0,1,1.7-1.9A6.59,6.59,0,0,1,204.3,35.1Z" transform="translate(0 -1)"/><path class="cls-1" d="M216.2,49.3l-.8-1.9h-.1a4.51,4.51,0,0,1-1.9,1.6,6.46,6.46,0,0,1-2.6.4,3.94,3.94,0,0,1-3.1-1.1,4.59,4.59,0,0,1-1.1-3.2,3.68,3.68,0,0,1,1.5-3.2,8.12,8.12,0,0,1,4.7-1.1l2.4-.1v-.6a1.86,1.86,0,0,0-2.1-2.1,9.35,9.35,0,0,0-3.9,1l-1.3-2.5a11.54,11.54,0,0,1,5.3-1.3,6.87,6.87,0,0,1,4.3,1.2,4.36,4.36,0,0,1,1.4,3.7v9.2Zm-1.1-6.4-1.4.1a5.39,5.39,0,0,0-2.5.6,1.82,1.82,0,0,0-.8,1.6c0,1,.6,1.6,1.8,1.6a2.79,2.79,0,0,0,2-.8,2.73,2.73,0,0,0,.8-1.9l.1-1.2Z" transform="translate(0 -1)"/><path class="cls-1" d="M226.1,49.3h-3.8V30.1h3.8Z" transform="translate(0 -1)"/><path class="cls-1" d="M144.3,71.5,143,67.2h-6.6l-1.3,4.3H131l6.4-18.2h4.7l6.4,18.2ZM142,63.9c-1.2-4-1.9-6.1-2-6.6a3.46,3.46,0,0,1-.3-1.2c-.3,1-1,3.7-2.3,7.8Z" transform="translate(0 -1)"/><path class="cls-1" d="M160.4,67.3a3.88,3.88,0,0,1-1.4,3.2,7.62,7.62,0,0,1-4.5,1.1,15.74,15.74,0,0,1-2.5-.2,8.5,8.5,0,0,1-1.9-.6v-3a11.22,11.22,0,0,0,2.4.8,6.34,6.34,0,0,0,2.3.3c1.4,0,2-.4,2-1.2a.91.91,0,0,0-.3-.7,3.49,3.49,0,0,0-.9-.6,7.84,7.84,0,0,0-1.8-.8,8,8,0,0,1-2.3-1.2,3.48,3.48,0,0,1-1.1-1.3,3.43,3.43,0,0,1-.3-1.8,3.37,3.37,0,0,1,1.4-2.8,6.71,6.71,0,0,1,4.1-1,11.21,11.21,0,0,1,4.9,1.1l-1.1,2.7a18.19,18.19,0,0,1-1.9-.8,5.82,5.82,0,0,0-1.9-.3c-1.1,0-1.6.3-1.6.9a1,1,0,0,0,.5.8,9.74,9.74,0,0,0,2.3,1.1,8.8,8.8,0,0,1,2.4,1.2,4.49,4.49,0,0,1,1.1,1.3C160.3,66.1,160.4,66.6,160.4,67.3Z" transform="translate(0 -1)"/><path class="cls-1" d="M172.9,67.3a3.88,3.88,0,0,1-1.4,3.2,7.62,7.62,0,0,1-4.5,1.1,15.74,15.74,0,0,1-2.5-.2,8.5,8.5,0,0,1-1.9-.6v-3a11.22,11.22,0,0,0,2.4.8,6.34,6.34,0,0,0,2.3.3c1.4,0,2-.4,2-1.2a.91.91,0,0,0-.3-.7,3.49,3.49,0,0,0-.9-.6,7.84,7.84,0,0,0-1.8-.8,8,8,0,0,1-2.3-1.2,3.48,3.48,0,0,1-1.1-1.3,3.43,3.43,0,0,1-.3-1.8,3.37,3.37,0,0,1,1.4-2.8,6.71,6.71,0,0,1,4.1-1,11.21,11.21,0,0,1,4.9,1.1l-1.1,2.7a18.19,18.19,0,0,1-1.9-.8,5.82,5.82,0,0,0-1.9-.3c-1.1,0-1.6.3-1.6.9a1,1,0,0,0,.5.8,9.74,9.74,0,0,0,2.3,1.1,8.8,8.8,0,0,1,2.4,1.2,3.48,3.48,0,0,1,1.1,1.3C172.8,66.1,172.9,66.6,172.9,67.3Z" transform="translate(0 -1)"/><path class="cls-1" d="M181.8,71.7a7.19,7.19,0,0,1-5.3-1.9,6.89,6.89,0,0,1-1.9-5.3,7.94,7.94,0,0,1,1.7-5.4,6,6,0,0,1,4.8-1.9,6.14,6.14,0,0,1,4.6,1.6,6.24,6.24,0,0,1,1.6,4.7v1.8h-8.9a3.12,3.12,0,0,0,3.4,3.4,9.86,9.86,0,0,0,2.4-.3,10.5,10.5,0,0,0,2.3-.8v2.9a18,18,0,0,1-2.1.8A6.77,6.77,0,0,1,181.8,71.7ZM181.3,60a2.56,2.56,0,0,0-1.9.8,4,4,0,0,0-.8,2.1h5.3a2.86,2.86,0,0,0-.8-2.1A2.5,2.5,0,0,0,181.3,60Z" transform="translate(0 -1)"/><path class="cls-1" d="M202.6,71.5h-3.8v-8a4.2,4.2,0,0,0-.5-2.2,1.65,1.65,0,0,0-1.5-.8,2.39,2.39,0,0,0-2.1,1,7.54,7.54,0,0,0-.7,3.6v6.5h-3.8V57.7h2.9l.5,1.8h.2a3.17,3.17,0,0,1,1.6-1.4,6,6,0,0,1,2.4-.5c2,0,3.6.7,4.2,2h.3a2.77,2.77,0,0,1,1.6-1.4,6.18,6.18,0,0,1,2.5-.5,5.22,5.22,0,0,1,3.6,1.2c.8.8,1.2,2,1.2,3.9v9h-3.8v-8a4.2,4.2,0,0,0-.5-2.2,1.65,1.65,0,0,0-1.5-.8,2.12,2.12,0,0,0-2,1,6.17,6.17,0,0,0-.7,3.1l-.1,6.6Z" transform="translate(0 -1)"/><path class="cls-1" d="M222.3,57.4a4.65,4.65,0,0,1,3.9,1.9,9,9,0,0,1,1.4,5.3,8.81,8.81,0,0,1-1.4,5.3,4.41,4.41,0,0,1-3.9,1.9,4.84,4.84,0,0,1-3.9-1.8h-.3l-.6,1.5h-2.9V52.2h3.8v4.5c0,.6-.1,1.4-.2,2.7h.2A4.49,4.49,0,0,1,222.3,57.4Zm-1.2,3a2.48,2.48,0,0,0-2,.8,5,5,0,0,0-.7,2.8v.4a5.9,5.9,0,0,0,.7,3.1,2.05,2.05,0,0,0,2,.9,2.17,2.17,0,0,0,1.9-1,6,6,0,0,0,.7-3,5.75,5.75,0,0,0-.7-3A2.17,2.17,0,0,0,221.1,60.4Z" transform="translate(0 -1)"/><path class="cls-1" d="M234.1,71.5h-3.8V52.2h3.8Z" transform="translate(0 -1)"/><path class="cls-1" d="M235.9,57.7h4.2l2.5,7.8a8,8,0,0,1,.4,2.4h.1a20.48,20.48,0,0,1,.5-2.4l2.5-7.8h4.1l-5.8,15.6a6.49,6.49,0,0,1-2.3,3.2,5.93,5.93,0,0,1-3.6,1.1,11.08,11.08,0,0,1-1.9-.2v-3a5.9,5.9,0,0,0,1.4.2,2.35,2.35,0,0,0,1.7-.6,4.78,4.78,0,0,0,1.2-1.9l.3-.7Z" transform="translate(0 -1)"/><path class="cls-1" d="M67.2,77.4A34.52,34.52,0,0,1,10.7,50.7,34.45,34.45,0,0,1,67.1,24.1a28.41,28.41,0,0,1,7.2-.9,27.12,27.12,0,0,1,7.5,1A46.94,46.94,0,0,0,69,12.3l3-6.8L62.4,1l-3,6.7A46.75,46.75,0,0,0,45.3,5.5,45.25,45.25,0,0,0,21.4,89.2l-3,6.7,9.6,4.6,3-6.7A46.75,46.75,0,0,0,45.1,96,44.93,44.93,0,0,0,81.6,77.3a26.63,26.63,0,0,1-7.5,1A27.83,27.83,0,0,1,67.2,77.4Z" transform="translate(0 -1)"/><path class="cls-1" d="M48.9,38.9a25.11,25.11,0,0,1,5.6-8H26.2V70.4H54.5a29.6,29.6,0,0,1-5.6-8H34.2V54.8H46.7a26.33,26.33,0,0,1-.3-4.1,28.28,28.28,0,0,1,.3-4.1H34.2V39C34.2,38.9,43.9,38.9,48.9,38.9Z" transform="translate(0 -1)"/><path class="cls-1" d="M71.3,54.4h9.6v7.3a12.9,12.9,0,1,1-6.4-24.1,12.88,12.88,0,0,1,8,2.7l5-6.4A20.93,20.93,0,0,0,53.6,50.3,20.93,20.93,0,0,0,87.5,66.9L89,65.7V46.4H71.3Z" transform="translate(0 -1)"/><path class="cls-1" d="M117.2,30.8V56.6a6.9,6.9,0,0,1-13.8,0V30.8h-8V56.6a14.9,14.9,0,0,0,29.8,0V30.8Z" transform="translate(0 -1)"/><path class="cls-1" d="M285,71.89H258.73V68L269.26,57.4a79.07,79.07,0,0,0,6.35-6.95,17.6,17.6,0,0,0,2.29-4,11.65,11.65,0,0,0,.77-4.24,6.74,6.74,0,0,0-1.94-5.08,7.48,7.48,0,0,0-5.39-1.87,13.74,13.74,0,0,0-4.72.82,18.92,18.92,0,0,0-5,3l-2.41-3.09a18.47,18.47,0,0,1,12-4.59q5.63,0,8.83,2.88a10,10,0,0,1,3.2,7.76,14.91,14.91,0,0,1-2.14,7.52q-2.13,3.7-8,9.4l-8.75,8.56v.22H285Z" transform="translate(0 -1)"/><path class="cls-1" d="M317.25,51.85q0,10.36-3.27,15.47t-10,5.12a11,11,0,0,1-9.82-5.24q-3.36-5.23-3.36-15.35,0-10.45,3.25-15.51T304,31.28a11,11,0,0,1,9.88,5.28Q317.25,41.84,317.25,51.85Zm-21.85,0q0,8.71,2.05,12.7a7.36,7.36,0,0,0,13.11-.06q2-4,2-12.64t-2-12.62a7.39,7.39,0,0,0-13.11-.06Q295.41,43.13,295.4,51.85Z" transform="translate(0 -1)"/><path class="cls-1" d="M349.05,71.89H322.77V68L333.3,57.4a76.85,76.85,0,0,0,6.34-6.95,17.3,17.3,0,0,0,2.3-4,11.65,11.65,0,0,0,.77-4.24,6.74,6.74,0,0,0-1.94-5.08,7.48,7.48,0,0,0-5.39-1.87,13.74,13.74,0,0,0-4.72.82,18.92,18.92,0,0,0-5,3l-2.41-3.09a18.45,18.45,0,0,1,12-4.59c3.76,0,6.7,1,8.84,2.88a10,10,0,0,1,3.2,7.76,15,15,0,0,1-2.14,7.52q-2.13,3.7-8,9.4l-8.75,8.56v.22h20.56Z" transform="translate(0 -1)"/><path class="cls-1" d="M381.29,51.85q0,10.36-3.27,15.47t-10,5.12a11,11,0,0,1-9.82-5.24q-3.36-5.23-3.36-15.35,0-10.45,3.25-15.51T368,31.28a11,11,0,0,1,9.88,5.28Q381.29,41.84,381.29,51.85Zm-21.85,0q0,8.71,2.05,12.7a7.36,7.36,0,0,0,13.11-.06q2-4,2-12.64t-2-12.62a7.39,7.39,0,0,0-13.11-.06Q359.45,43.13,359.44,51.85Z" transform="translate(0 -1)"/></svg>